# xmcd CD database file generated by Grip 3.2.0
# 
# Track frame offsets:
#       150
#       11763
#       22075
#       34300
#       47138
#       61275
#       77438
#       90938
#       104600
#       114700
#       125125
#       140938
# 
# Disc length: 2030 seconds
# 
# Revision: 1
# Processed by: cddbd v1.5.1PL2 Copyright (c) Steve Scherf et al.
# Submitted via: Grip 3.2.0
# 
DISCID=a907ec0c
DTITLE=Baldakinen - Bugg Låtar
DYEAR=1900
DGENRE=Other
TTITLE0=Streaplers - Älskar, Älskar Inte
TTITLE1=Vikingarna - Du Har Gjort Min Gråa Värld Till Guld Igen
TTITLE2=Flamingokvintetten - Underbara Söta Rara Sambo
TTITLE3=Sten and Stanley - En Vanlig Dag
TTITLE4=Berth Idoffs - Kom Igen Lilla Vän
TTITLE5=The Herb Miller Orchestra - In The Mood
TTITLE6=Ingmar Nordströms - Jorden Runt På 80 Da'r
TTITLE7=Dannys - Han Sjunger Om Kärlek
TTITLE8=Curt Haagers - Nu Har Det Hänt Igen
TTITLE9=Country Road - Mean Woman Blues
TTITLE10=Stefan Borsch - Hipp Hurra
TTITLE11=Matz Bladhs - Vilket Underbart Liv
EXTD=
EXTT0=
EXTT1=
EXTT2=
EXTT3=
EXTT4=
EXTT5=
EXTT6=
EXTT7=
EXTT8=
EXTT9=
EXTT10=
EXTT11=
PLAYORDER=
